<svg width="112" height="40" viewBox="0 0 112 40" fill="none" xmlns="http://www.w3.org/2000/svg">
<path d="M4.95911e-05 33.1082C4.95911e-05 34.5018 1.10405 35.6425 2.49742 35.6675C4.76835 35.7082 8.13854 35.7347 10.6499 35.6083C13.2743 35.4763 16.7988 35.0848 19.0603 34.8114C20.3439 34.6563 21.2998 33.5636 21.2998 32.2706V9.31467C21.2998 7.75215 19.9233 6.54497 18.3715 6.72768C16.1263 6.99204 13.0207 7.32308 10.6499 7.44238C8.19947 7.56569 4.93137 7.54343 2.66461 7.50449C1.20643 7.47944 4.95911e-05 8.65011 4.95911e-05 10.1085V33.1082Z" fill="#191D7C"/>
<path d="M41.3671 33.1082C41.3671 34.5018 40.2631 35.6425 38.8698 35.6675C36.5988 35.7082 33.2286 35.7347 30.7173 35.6083C28.0929 35.4763 24.5684 35.0848 22.3069 34.8114C21.0233 34.6563 20.0674 33.5636 20.0674 32.2706V9.31467C20.0674 7.75215 21.4439 6.54497 22.9957 6.72768C25.2409 6.99204 28.3465 7.32308 30.7173 7.44238C33.1677 7.56569 36.4358 7.54343 38.7026 7.50449C40.1608 7.47944 41.3671 8.65011 41.3671 10.1085V33.1082Z" fill="#E2C83E"/>
<path fill-rule="evenodd" clip-rule="evenodd" d="M9.03907 25.6118C9.03907 25.6118 9.03874 25.6116 9.50614 24.6645C9.97354 23.7174 9.97336 23.7173 9.97336 23.7173L9.97617 23.7187L9.98797 23.7244L10.0383 23.7488C10.0834 23.7706 10.1514 23.8032 10.2402 23.8449C10.4179 23.9285 10.6786 24.0489 11.0059 24.1939C11.6612 24.4841 12.5798 24.871 13.6314 25.2574C15.7692 26.0429 18.3274 26.7769 20.3321 26.7769C22.3367 26.7769 24.8949 26.0429 27.0327 25.2574C28.0843 24.871 29.0029 24.4841 29.6582 24.1939C29.9855 24.0489 30.2462 23.9285 30.4239 23.8449C30.5127 23.8032 30.5807 23.7706 30.6258 23.7488L30.6761 23.7244L30.6879 23.7187L30.6904 23.7175C30.6904 23.7175 30.6906 23.7174 31.158 24.6645C31.6254 25.6116 31.625 25.6118 31.625 25.6118L31.6232 25.6127L31.6187 25.6149L31.6027 25.6228L31.5437 25.6514C31.4927 25.676 31.4184 25.7115 31.3231 25.7564C31.1324 25.8461 30.857 25.9732 30.5136 26.1253C29.8273 26.4292 28.8654 26.8344 27.7612 27.2402C25.5873 28.0389 22.7326 28.8893 20.3321 28.8893C17.9315 28.8893 15.0768 28.0389 12.9029 27.2402C11.7987 26.8344 10.8368 26.4292 10.1505 26.1253C9.80707 25.9732 9.53171 25.8461 9.34104 25.7564C9.24568 25.7115 9.17144 25.676 9.12039 25.6514L9.06142 25.6228L9.04545 25.6149L9.03907 25.6118Z" fill="white"/>
<path fill-rule="evenodd" clip-rule="evenodd" d="M11.4791 23.0763L9.36677 26.773L7.53271 25.725L9.64509 22.0283L11.4791 23.0763Z" fill="white"/>
<path fill-rule="evenodd" clip-rule="evenodd" d="M33.6593 25.7249L31.5469 22.0283L29.7129 23.0763L31.8253 26.7729L33.6593 25.7249Z" fill="white"/>
<path fill-rule="evenodd" clip-rule="evenodd" d="M20.5957 12.8862L24.8163 15.298L23.7683 17.1321L20.5957 15.3192L17.423 17.1321L16.375 15.298L20.5957 12.8862Z" fill="white"/>
<path d="M63.3512 6.10007H57.668V9.24887H62.7752V11.6105H57.668V16.9097H54.7496V3.73847H63.6584L63.3512 6.10007ZM65.5299 3.08568H68.3715V5.29367H65.5299V3.08568ZM65.5491 16.9097V7.09847H68.3523V16.9097H65.5491ZM70.9889 16.9097V3.08568H73.7921V16.9097H70.9889ZM76.4282 3.08568H79.2698V5.29367H76.4282V3.08568ZM76.4474 16.9097V7.09847H79.2506V16.9097H76.4474ZM84.2871 8.53847C85.0935 7.45047 86.1367 6.90647 87.4167 6.90647C88.4151 6.90647 89.2343 7.17527 89.8743 7.71287C90.5271 8.25047 90.8535 9.03127 90.8535 10.0553V16.9097H88.0503V10.6697C88.0503 10.1705 87.9031 9.76087 87.6087 9.44087C87.3271 9.10807 86.9623 8.94167 86.5143 8.94167C86.0151 8.94167 85.5863 9.13367 85.2279 9.51767C84.8695 9.88887 84.6903 10.3433 84.6903 10.8809V16.9097H81.8871V7.09847H83.9799L84.2871 8.53847ZM100.179 14.6825C101.075 14.6825 101.759 14.9385 102.233 15.4505C102.719 15.9497 102.963 16.6089 102.963 17.4281C102.963 18.0169 102.796 18.5481 102.463 19.0217C102.131 19.4953 101.676 19.8601 101.1 20.1161C100.537 20.3849 99.9098 20.5193 99.2186 20.5193H95.1674C94.3866 20.5193 93.7274 20.3017 93.1898 19.8665C92.665 19.4441 92.4026 18.8553 92.4026 18.1001C92.4026 17.6393 92.537 17.2233 92.8058 16.8521C93.0874 16.4681 93.4394 16.1801 93.8618 15.9881C93.5674 15.7961 93.3434 15.5593 93.1898 15.2777C93.0362 14.9961 92.9594 14.6889 92.9594 14.3561C92.9594 13.8825 93.113 13.4729 93.4202 13.1273C93.7274 12.7689 94.1242 12.5129 94.6106 12.3593C94.1754 12.0905 93.8362 11.7513 93.593 11.3417C93.3498 10.9193 93.2282 10.4713 93.2282 9.99767C93.2282 9.08887 93.5802 8.34647 94.2842 7.77047C95.001 7.19447 96.0442 6.90647 97.4138 6.90647H97.721C98.3226 6.90647 98.8602 6.98327 99.3338 7.13687C99.8586 6.82967 100.223 6.51607 100.428 6.19607C100.633 5.87607 100.748 5.58807 100.774 5.33207H102.963C102.963 6.68887 102.284 7.53367 100.927 7.86647L100.908 7.92407C101.587 8.50007 101.926 9.19127 101.926 9.99767C101.926 10.5609 101.766 11.0793 101.446 11.5529C101.126 12.0137 100.671 12.3849 100.083 12.6665C99.5066 12.9353 98.841 13.0697 98.0858 13.0697H96.761C96.377 13.0697 96.0762 13.1529 95.8586 13.3193C95.6538 13.4857 95.5514 13.6713 95.5514 13.8761C95.5514 14.1321 95.6474 14.3305 95.8394 14.4713C96.0442 14.6121 96.3514 14.6825 96.761 14.6825H100.179ZM95.9162 9.99767C95.9162 10.4457 96.0762 10.7977 96.3962 11.0537C96.7162 11.2969 97.1194 11.4185 97.6058 11.4185C98.105 11.4185 98.5146 11.2969 98.8346 11.0537C99.1546 10.7977 99.3146 10.4457 99.3146 9.99767C99.3146 9.54967 99.1546 9.20407 98.8346 8.96087C98.5146 8.70487 98.105 8.57687 97.6058 8.57687C97.1194 8.57687 96.7162 8.70487 96.3962 8.96087C96.0762 9.20407 95.9162 9.54967 95.9162 9.99767ZM99.1418 18.7913C99.4746 18.7913 99.7626 18.6889 100.006 18.4841C100.249 18.2921 100.371 18.0617 100.371 17.7929C100.371 17.5369 100.268 17.3193 100.063 17.1401C99.8586 16.9737 99.5898 16.8905 99.257 16.8905H95.9162C95.6346 16.8905 95.3914 16.9801 95.1866 17.1593C94.9818 17.3513 94.8794 17.5753 94.8794 17.8313C94.8794 18.0873 94.9818 18.3113 95.1866 18.5033C95.3914 18.6953 95.6346 18.7913 95.9162 18.7913H99.1418Z" fill="#191D7C"/>
<path d="M61.2776 22.7385C61.9048 22.7385 62.4808 22.8857 63.0056 23.1801C63.5304 23.4617 63.9464 23.8521 64.2536 24.3513C64.5736 24.8377 64.7336 25.3753 64.7336 25.9641C64.7336 26.8601 64.5224 27.5513 64.1 28.0377C63.6776 28.5241 63.14 28.8569 62.4872 29.0361V29.1321C63.1912 29.2729 63.7928 29.5993 64.292 30.1113C64.7912 30.6233 65.0408 31.3849 65.0408 32.3961C65.0408 33.0361 64.8744 33.6249 64.5416 34.1625C64.2216 34.7001 63.78 35.1289 63.2168 35.4489C62.6664 35.7561 62.0584 35.9097 61.3928 35.9097H54.7496V22.7385H61.2776ZM60.4328 28.0761C60.8168 28.0761 61.156 27.9289 61.4504 27.6345C61.7448 27.3401 61.892 26.9689 61.892 26.5209C61.892 25.9833 61.7448 25.5993 61.4504 25.3689C61.156 25.1257 60.8168 25.0041 60.4328 25.0041H57.5528V28.0761H60.4328ZM60.644 33.5289C61.0664 33.5289 61.4248 33.3817 61.7192 33.0873C62.0136 32.7929 62.1608 32.4345 62.1608 32.0121V31.8393C62.1608 31.4169 62.0136 31.0585 61.7192 30.7641C61.4248 30.4697 61.0664 30.3225 60.644 30.3225H57.5528V33.5289H60.644ZM76.0334 33.6057C76.0334 33.7977 76.091 33.9449 76.2062 34.0473C76.3214 34.1369 76.4494 34.1817 76.5902 34.1817C76.7182 34.1817 76.859 34.1561 77.0126 34.1049C77.1662 34.0537 77.2878 34.0089 77.3774 33.9705V35.6985C76.9038 35.9673 76.3406 36.1017 75.6878 36.1017C74.4078 36.1017 73.6654 35.6345 73.4606 34.7001C72.6542 35.6345 71.6686 36.1017 70.5038 36.1017C69.5054 36.1017 68.6798 35.8329 68.027 35.2953C67.387 34.7577 67.067 33.9769 67.067 32.9529V26.0985H69.8702V32.3385C69.8702 32.8377 70.011 33.2537 70.2926 33.5865C70.587 33.9065 70.9582 34.0665 71.4062 34.0665C71.9054 34.0665 72.3342 33.8809 72.6926 33.5097C73.051 33.1257 73.2302 32.6649 73.2302 32.1273V26.0985H76.0334V33.6057ZM85.3512 34.6809C84.6344 35.6281 83.7128 36.1017 82.5864 36.1017C81.8184 36.1017 81.1272 35.9161 80.5128 35.5449C79.8984 35.1737 79.412 34.6105 79.0536 33.8553C78.6952 33.1001 78.516 32.1657 78.516 31.0521V30.8409C78.516 29.7785 78.6824 28.8761 79.0152 28.1337C79.348 27.3913 79.796 26.8345 80.3592 26.4633C80.9352 26.0921 81.5816 25.9065 82.2984 25.9065C82.9128 25.9065 83.4504 26.0345 83.9112 26.2905C84.3848 26.5465 84.7624 26.8601 85.044 27.2313V22.0857H87.8472V35.9097H85.6392L85.3512 34.6809ZM81.3576 31.8585C81.3576 32.6009 81.5304 33.1769 81.876 33.5865C82.2216 33.9833 82.6632 34.1817 83.2008 34.1817C83.7384 34.1817 84.18 33.9833 84.5256 33.5865C84.8712 33.1769 85.044 32.6009 85.044 31.8585V30.2649C85.044 29.5097 84.8712 28.9337 84.5256 28.5369C84.18 28.1401 83.7384 27.9417 83.2008 27.9417C82.6632 27.9417 82.2216 28.1401 81.876 28.5369C81.5304 28.9337 81.3576 29.5097 81.3576 30.2649V31.8585ZM96.866 34.6809C96.1492 35.6281 95.2276 36.1017 94.1012 36.1017C93.3332 36.1017 92.642 35.9161 92.0276 35.5449C91.4132 35.1737 90.9268 34.6105 90.5684 33.8553C90.21 33.1001 90.0308 32.1657 90.0308 31.0521V30.8409C90.0308 29.7785 90.1972 28.8761 90.53 28.1337C90.8628 27.3913 91.3108 26.8345 91.874 26.4633C92.45 26.0921 93.0964 25.9065 93.8132 25.9065C94.4276 25.9065 94.9652 26.0345 95.426 26.2905C95.8996 26.5465 96.2772 26.8601 96.5588 27.2313V22.0857H99.362V35.9097H97.154L96.866 34.6809ZM92.8724 31.8585C92.8724 32.6009 93.0452 33.1769 93.3908 33.5865C93.7364 33.9833 94.178 34.1817 94.7156 34.1817C95.2532 34.1817 95.6948 33.9833 96.0404 33.5865C96.386 33.1769 96.5588 32.6009 96.5588 31.8585V30.2649C96.5588 29.5097 96.386 28.9337 96.0404 28.5369C95.6948 28.1401 95.2532 27.9417 94.7156 27.9417C94.178 27.9417 93.7364 28.1401 93.3908 28.5369C93.0452 28.9337 92.8724 29.5097 92.8724 30.2649V31.8585ZM107.402 35.3721C106.928 36.6521 106.346 37.6569 105.654 38.3865C104.963 39.1289 104.131 39.5001 103.158 39.5001C102.48 39.5001 101.93 39.4041 101.507 39.2121V37.2345C101.661 37.2985 101.859 37.3561 102.102 37.4073C102.346 37.4713 102.576 37.5033 102.794 37.5033C103.613 37.5033 104.195 36.9081 104.541 35.7177L100.835 26.0985H103.811L105.981 32.2617H106.096L108.131 26.0985H110.896L107.402 35.3721Z" fill="#E2C83E"/>
</svg>
