<svg width="168" height="59" viewBox="0 0 168 59" fill="none" xmlns="http://www.w3.org/2000/svg">
<path d="M8.01086e-05 48.299C8.01086e-05 50.3894 1.65609 52.1005 3.74613 52.138C7.15254 52.199 12.2078 52.2388 15.9749 52.0492C19.9114 51.8511 25.1983 51.2639 28.5905 50.8539C30.5159 50.6212 31.9497 48.9821 31.9497 47.0426V12.6087C31.9497 10.2649 29.8849 8.45417 27.5572 8.72824C24.1894 9.12478 19.5311 9.62135 15.9749 9.8003C12.2992 9.98526 7.39706 9.95187 3.99692 9.89346C1.80966 9.85588 8.01086e-05 11.6119 8.01086e-05 13.7995V48.299Z" fill="white"/>
<path d="M62.0507 48.299C62.0507 50.3894 60.3947 52.1005 58.3046 52.138C54.8982 52.199 49.843 52.2388 46.0759 52.0492C42.1394 51.8511 36.8525 51.2639 33.4603 50.8539C31.5349 50.6212 30.1011 48.9821 30.1011 47.0426V12.6087C30.1011 10.2649 32.1658 8.45417 34.4935 8.72824C37.8614 9.12478 42.5197 9.62135 46.0759 9.8003C49.7516 9.98526 54.6537 9.95187 58.0539 9.89346C60.2411 9.85588 62.0507 11.6119 62.0507 13.7995V48.299Z" fill="#E2C83E"/>
<path fill-rule="evenodd" clip-rule="evenodd" d="M13.5581 37.0537C13.5581 37.0537 13.5576 37.0535 14.2587 35.6328C14.9598 34.212 14.9596 34.2119 14.9596 34.2119L14.9638 34.214L14.9815 34.2226L15.0569 34.2592C15.1246 34.2919 15.2266 34.3407 15.3599 34.4034C15.6264 34.5288 16.0174 34.7094 16.5083 34.9268C17.4913 35.3621 18.8693 35.9425 20.4467 36.5221C23.6533 37.7004 27.4906 38.8013 30.4976 38.8013C33.5045 38.8013 37.3418 37.7004 40.5485 36.5221C42.1259 35.9425 43.5038 35.3621 44.4868 34.9268C44.9778 34.7094 45.3688 34.5288 45.6353 34.4034C45.7685 34.3407 45.8705 34.2919 45.9383 34.2592L46.0137 34.2226L46.0314 34.214L46.0351 34.2122C46.0351 34.2122 46.0354 34.212 46.7365 35.6328C47.4375 37.0535 47.4371 37.0537 47.4371 37.0537L47.4343 37.0551L47.4275 37.0584L47.4035 37.0701L47.3151 37.113C47.2385 37.15 47.1271 37.2033 46.9841 37.2705C46.6981 37.4051 46.2851 37.5958 45.7698 37.824C44.7405 38.2798 43.2977 38.8876 41.6413 39.4962C38.3805 40.6944 34.0984 41.9699 30.4976 41.9699C26.8968 41.9699 22.6147 40.6944 19.3539 39.4962C17.6975 38.8876 16.2547 38.2798 15.2253 37.824C14.7101 37.5958 14.2971 37.4051 14.0111 37.2705C13.868 37.2033 13.7567 37.15 13.6801 37.113L13.5916 37.0701L13.5677 37.0584L13.5581 37.0537Z" fill="#191D7C"/>
<path fill-rule="evenodd" clip-rule="evenodd" d="M17.2182 33.2498L14.0497 38.7948L11.2986 37.2227L14.4671 31.6777L17.2182 33.2498Z" fill="#191D7C"/>
<path fill-rule="evenodd" clip-rule="evenodd" d="M50.488 37.2229L47.3194 31.6779L44.5684 33.2499L47.7369 38.7949L50.488 37.2229Z" fill="#191D7C"/>
<path fill-rule="evenodd" clip-rule="evenodd" d="M30.8933 17.9658L37.2243 21.5835L35.6522 24.3346L30.8933 21.6152L26.1343 24.3346L24.5623 21.5835L30.8933 17.9658Z" fill="#191D7C"/>
<path d="M95.0265 7.78561H86.5017V12.5088H94.1625V16.0512H86.5017V24H82.1241V4.24321H95.4873L95.0265 7.78561ZM98.2947 3.26401H102.557V6.57601H98.2947V3.26401ZM98.3235 24V9.28321H102.528V24H98.3235ZM106.483 24V3.26401H110.688V24H106.483ZM114.642 3.26401H118.904V6.57601H114.642V3.26401ZM114.671 24V9.28321H118.876V24H114.671ZM126.43 11.4432C127.64 9.81121 129.205 8.99521 131.125 8.99521C132.622 8.99521 133.851 9.39841 134.811 10.2048C135.79 11.0112 136.28 12.1824 136.28 13.7184V24H132.075V14.64C132.075 13.8912 131.854 13.2768 131.413 12.7968C130.99 12.2976 130.443 12.048 129.771 12.048C129.022 12.048 128.379 12.336 127.842 12.912C127.304 13.4688 127.035 14.1504 127.035 14.9568V24H122.83V9.28321H125.97L126.43 11.4432ZM150.268 20.6592C151.612 20.6592 152.639 21.0432 153.349 21.8112C154.079 22.56 154.444 23.5488 154.444 24.7776C154.444 25.6608 154.194 26.4576 153.695 27.168C153.196 27.8784 152.514 28.4256 151.65 28.8096C150.805 29.2128 149.864 29.4144 148.828 29.4144H142.751C141.58 29.4144 140.591 29.088 139.784 28.4352C138.997 27.8016 138.604 26.9184 138.604 25.7856C138.604 25.0944 138.805 24.4704 139.208 23.9136C139.631 23.3376 140.159 22.9056 140.792 22.6176C140.351 22.3296 140.015 21.9744 139.784 21.552C139.554 21.1296 139.439 20.6688 139.439 20.1696C139.439 19.4592 139.669 18.8448 140.13 18.3264C140.591 17.7888 141.186 17.4048 141.916 17.1744C141.263 16.7712 140.754 16.2624 140.389 15.648C140.024 15.0144 139.842 14.3424 139.842 13.632C139.842 12.2688 140.37 11.1552 141.426 10.2912C142.501 9.42721 144.066 8.99521 146.12 8.99521H146.581C147.484 8.99521 148.29 9.11041 149 9.34081C149.788 8.88001 150.335 8.40961 150.642 7.92961C150.949 7.44961 151.122 7.01761 151.16 6.63361H154.444C154.444 8.66881 153.426 9.93601 151.391 10.4352L151.362 10.5216C152.38 11.3856 152.888 12.4224 152.888 13.632C152.888 14.4768 152.648 15.2544 152.168 15.9648C151.688 16.656 151.007 17.2128 150.124 17.6352C149.26 18.0384 148.261 18.24 147.128 18.24H145.141C144.565 18.24 144.114 18.3648 143.788 18.6144C143.48 18.864 143.327 19.1424 143.327 19.4496C143.327 19.8336 143.471 20.1312 143.759 20.3424C144.066 20.5536 144.527 20.6592 145.141 20.6592H150.268ZM143.874 13.632C143.874 14.304 144.114 14.832 144.594 15.216C145.074 15.5808 145.679 15.7632 146.408 15.7632C147.157 15.7632 147.772 15.5808 148.252 15.216C148.732 14.832 148.972 14.304 148.972 13.632C148.972 12.96 148.732 12.4416 148.252 12.0768C147.772 11.6928 147.157 11.5008 146.408 11.5008C145.679 11.5008 145.074 11.6928 144.594 12.0768C144.114 12.4416 143.874 12.96 143.874 13.632ZM148.712 26.8224C149.212 26.8224 149.644 26.6688 150.008 26.3616C150.373 26.0736 150.556 25.728 150.556 25.3248C150.556 24.9408 150.402 24.6144 150.095 24.3456C149.788 24.096 149.384 23.9712 148.885 23.9712H143.874C143.452 23.9712 143.087 24.1056 142.78 24.3744C142.472 24.6624 142.319 24.9984 142.319 25.3824C142.319 25.7664 142.472 26.1024 142.78 26.3904C143.087 26.6784 143.452 26.8224 143.874 26.8224H148.712Z" fill="white"/>
<path d="M91.9161 33.2432C92.8569 33.2432 93.7209 33.464 94.5081 33.9056C95.2953 34.328 95.9193 34.9136 96.3801 35.6624C96.8601 36.392 97.1001 37.1984 97.1001 38.0816C97.1001 39.4256 96.7833 40.4624 96.1497 41.192C95.5161 41.9216 94.7097 42.4208 93.7305 42.6896V42.8336C94.7865 43.0448 95.6889 43.5344 96.4377 44.3024C97.1865 45.0704 97.5609 46.2128 97.5609 47.7296C97.5609 48.6896 97.3113 49.5728 96.8121 50.3792C96.3321 51.1856 95.6697 51.8288 94.8249 52.3088C93.9993 52.7696 93.0873 53 92.0889 53H82.1241V33.2432H91.9161ZM90.6489 41.2496C91.2249 41.2496 91.7337 41.0288 92.1753 40.5872C92.6169 40.1456 92.8377 39.5888 92.8377 38.9168C92.8377 38.1104 92.6169 37.5344 92.1753 37.1888C91.7337 36.824 91.2249 36.6416 90.6489 36.6416H86.3289V41.2496H90.6489ZM90.9657 49.4288C91.5993 49.4288 92.1369 49.208 92.5785 48.7664C93.0201 48.3248 93.2409 47.7872 93.2409 47.1536V46.8944C93.2409 46.2608 93.0201 45.7232 92.5785 45.2816C92.1369 44.84 91.5993 44.6192 90.9657 44.6192H86.3289V49.4288H90.9657ZM114.05 49.544C114.05 49.832 114.136 50.0528 114.309 50.2064C114.482 50.3408 114.674 50.408 114.885 50.408C115.077 50.408 115.288 50.3696 115.519 50.2928C115.749 50.216 115.931 50.1488 116.066 50.0912V52.6832C115.355 53.0864 114.511 53.288 113.531 53.288C111.611 53.288 110.498 52.5872 110.191 51.1856C108.981 52.5872 107.503 53.288 105.755 53.288C104.258 53.288 103.019 52.8848 102.04 52.0784C101.08 51.272 100.6 50.1008 100.6 48.5648V38.2832H104.805V47.6432C104.805 48.392 105.016 49.016 105.439 49.5152C105.88 49.9952 106.437 50.2352 107.109 50.2352C107.858 50.2352 108.501 49.9568 109.039 49.4C109.576 48.824 109.845 48.1328 109.845 47.3264V38.2832H114.05V49.544ZM128.027 51.1568C126.951 52.5776 125.569 53.288 123.879 53.288C122.727 53.288 121.691 53.0096 120.769 52.4528C119.847 51.896 119.118 51.0512 118.58 49.9184C118.043 48.7856 117.774 47.384 117.774 45.7136V45.3968C117.774 43.8032 118.023 42.4496 118.523 41.336C119.022 40.2224 119.694 39.3872 120.539 38.8304C121.403 38.2736 122.372 37.9952 123.447 37.9952C124.369 37.9952 125.175 38.1872 125.867 38.5712C126.577 38.9552 127.143 39.4256 127.566 39.9824V32.264H131.771V53H128.459L128.027 51.1568ZM122.036 46.9232C122.036 48.0368 122.295 48.9008 122.814 49.5152C123.332 50.1104 123.995 50.408 124.801 50.408C125.607 50.408 126.27 50.1104 126.788 49.5152C127.307 48.9008 127.566 48.0368 127.566 46.9232V44.5328C127.566 43.4 127.307 42.536 126.788 41.9408C126.27 41.3456 125.607 41.048 124.801 41.048C123.995 41.048 123.332 41.3456 122.814 41.9408C122.295 42.536 122.036 43.4 122.036 44.5328V46.9232ZM145.299 51.1568C144.223 52.5776 142.841 53.288 141.151 53.288C139.999 53.288 138.963 53.0096 138.041 52.4528C137.12 51.896 136.39 51.0512 135.852 49.9184C135.315 48.7856 135.046 47.384 135.046 45.7136V45.3968C135.046 43.8032 135.296 42.4496 135.795 41.336C136.294 40.2224 136.966 39.3872 137.811 38.8304C138.675 38.2736 139.644 37.9952 140.719 37.9952C141.641 37.9952 142.447 38.1872 143.139 38.5712C143.849 38.9552 144.415 39.4256 144.838 39.9824V32.264H149.043V53H145.731L145.299 51.1568ZM139.308 46.9232C139.308 48.0368 139.567 48.9008 140.086 49.5152C140.604 50.1104 141.267 50.408 142.073 50.408C142.879 50.408 143.542 50.1104 144.06 49.5152C144.579 48.9008 144.838 48.0368 144.838 46.9232V44.5328C144.838 43.4 144.579 42.536 144.06 41.9408C143.542 41.3456 142.879 41.048 142.073 41.048C141.267 41.048 140.604 41.3456 140.086 41.9408C139.567 42.536 139.308 43.4 139.308 44.5328V46.9232ZM161.102 52.1936C160.392 54.1136 159.518 55.6208 158.481 56.7152C157.444 57.8288 156.196 58.3856 154.737 58.3856C153.72 58.3856 152.894 58.2416 152.26 57.9536V54.9872C152.491 55.0832 152.788 55.1696 153.153 55.2464C153.518 55.3424 153.864 55.3904 154.19 55.3904C155.419 55.3904 156.292 54.4976 156.811 52.712L151.252 38.2832H155.716L158.971 47.528H159.144L162.196 38.2832H166.344L161.102 52.1936Z" fill="#E2C83E"/>
<path fill-rule="evenodd" clip-rule="evenodd" d="M152.789 12.7163C152.784 12.6983 152.78 12.6803 152.775 12.6623C152.779 12.7061 152.779 12.7299 152.779 12.7299L152.789 12.7163ZM151.378 10.5132C151.164 10.3566 150.917 10.2039 150.633 10.0598C150.062 9.72566 149.512 9.49984 149.021 9.34748C149.802 8.88897 150.345 8.42097 150.65 7.94346C150.958 7.46346 151.13 7.03146 151.169 6.64746H154.452C154.452 8.68266 153.434 9.94986 151.399 10.4491L151.378 10.5132ZM147.454 9.04692C147.315 9.03429 147.174 9.02482 147.029 9.01851L147.02 9.03809C147.02 9.03809 147.178 9.02817 147.454 9.04692Z" fill="#E2C83E"/>
</svg>
