<svg width="496" height="187" viewBox="0 0 496 187" fill="none" xmlns="http://www.w3.org/2000/svg">
<path fill-rule="evenodd" clip-rule="evenodd" d="M45.7081 99.7028C45.7081 99.7028 45.6982 99.6983 59.8817 73.3472C74.0652 46.9961 74.0598 46.9937 74.0598 46.9937L74.1451 47.0321L74.503 47.1926L76.0294 47.8713C77.3994 48.4773 79.4631 49.3829 82.1583 50.5454C87.55 52.8709 95.4604 56.2206 105.392 60.2532C125.279 68.3273 153.155 79.0923 185.066 89.8428C249.939 111.697 327.569 128.23 388.4 128.23C449.232 128.23 526.862 111.697 591.735 89.8428C623.646 79.0923 651.522 68.3273 671.409 60.2532C681.341 56.2206 689.251 52.8709 694.643 50.5454C697.338 49.3829 699.402 48.4773 700.772 47.8713L702.298 47.1926L702.656 47.0321L702.731 46.9983C702.731 46.9983 702.736 46.9961 716.919 73.3472C731.103 99.6983 731.093 99.7028 731.093 99.7028L731.036 99.7283L730.899 99.7901L730.414 100.008L728.625 100.803C727.076 101.489 724.823 102.477 721.929 103.725C716.143 106.22 707.787 109.758 697.364 113.99C676.54 122.445 647.351 133.719 613.843 145.007C547.875 167.23 461.245 187 388.4 187C315.556 187 228.926 167.23 162.958 145.007C129.45 133.719 100.261 122.445 79.4366 113.99C69.0135 109.758 60.6575 106.22 54.8716 103.725C51.978 102.477 49.7251 101.489 48.1757 100.803L46.3865 100.008L45.9018 99.7901L45.7081 99.7028Z" fill="#E2C83E"/>
<path fill-rule="evenodd" clip-rule="evenodd" d="M119.757 29.1582L55.6554 132.006L0 102.848L64.1012 0L119.757 29.1582Z" fill="#E2C83E"/>
</svg>
